<svg width="135" height="67" viewBox="0 0 135 67" fill="none" xmlns="http://www.w3.org/2000/svg">
<circle cx="23" cy="32" r="23" fill="url(#paint0_radial_101_0)"/>
<circle cx="112" cy="32" r="23" fill="url(#paint1_radial_101_0)"/>
<g filter="url(#filter0_d_101_0)">
<circle cx="67.5" cy="29.5" r="29.5" fill="url(#paint2_radial_101_0)"/>
</g>
<g filter="url(#filter1_d_101_0)">
<path d="M32.98 40.09C31.92 40.09 30.96 39.88 30.1 39.46C29.24 39.04 28.49 38.47 27.85 37.75C27.23 37.01 26.75 36.16 26.41 35.2C26.07 34.24 25.9 33.22 25.9 32.14C25.9 31 26.08 29.94 26.44 28.96C26.8 27.98 27.3 27.12 27.94 26.38C28.58 25.64 29.35 25.06 30.25 24.64C31.15 24.22 32.14 24.01 33.22 24.01C34.44 24.01 35.51 24.29 36.43 24.85C37.35 25.39 38.11 26.12 38.71 27.04V24.28H42.22V39.25C42.22 40.41 42 41.45 41.56 42.37C41.12 43.29 40.51 44.07 39.73 44.71C38.97 45.35 38.05 45.84 36.97 46.18C35.91 46.52 34.75 46.69 33.49 46.69C31.77 46.69 30.32 46.4 29.14 45.82C27.98 45.26 26.98 44.46 26.14 43.42L28.33 41.29C28.93 42.03 29.68 42.61 30.58 43.03C31.5 43.45 32.47 43.66 33.49 43.66C34.11 43.66 34.7 43.57 35.26 43.39C35.84 43.23 36.35 42.97 36.79 42.61C37.23 42.25 37.57 41.79 37.81 41.23C38.07 40.67 38.2 40.01 38.2 39.25V37.27C37.68 38.17 36.95 38.87 36.01 39.37C35.07 39.85 34.06 40.09 32.98 40.09ZM34.33 36.88C34.77 36.88 35.19 36.81 35.59 36.67C35.99 36.53 36.36 36.34 36.7 36.1C37.04 35.86 37.34 35.58 37.6 35.26C37.86 34.94 38.06 34.6 38.2 34.24V30.49C37.84 29.57 37.27 28.83 36.49 28.27C35.73 27.71 34.93 27.43 34.09 27.43C33.47 27.43 32.91 27.57 32.41 27.85C31.91 28.11 31.48 28.47 31.12 28.93C30.76 29.37 30.48 29.88 30.28 30.46C30.1 31.04 30.01 31.64 30.01 32.26C30.01 32.9 30.12 33.5 30.34 34.06C30.56 34.62 30.86 35.11 31.24 35.53C31.64 35.95 32.1 36.28 32.62 36.52C33.14 36.76 33.71 36.88 34.33 36.88ZM54.0337 40.3C52.7737 40.3 51.6337 40.09 50.6137 39.67C49.5937 39.23 48.7237 38.64 48.0037 37.9C47.2837 37.16 46.7237 36.3 46.3237 35.32C45.9437 34.34 45.7537 33.31 45.7537 32.23C45.7537 31.11 45.9437 30.06 46.3237 29.08C46.7037 28.08 47.2537 27.21 47.9737 26.47C48.6937 25.71 49.5637 25.11 50.5837 24.67C51.6237 24.23 52.7837 24.01 54.0637 24.01C55.3437 24.01 56.4837 24.23 57.4837 24.67C58.5037 25.11 59.3637 25.7 60.0637 26.44C60.7837 27.18 61.3237 28.04 61.6837 29.02C62.0637 30 62.2537 31.02 62.2537 32.08C62.2537 32.34 62.2437 32.59 62.2237 32.83C62.2237 33.07 62.2037 33.27 62.1637 33.43H50.0137C50.0737 34.05 50.2237 34.6 50.4637 35.08C50.7037 35.56 51.0137 35.97 51.3937 36.31C51.7737 36.65 52.2037 36.91 52.6837 37.09C53.1637 37.27 53.6637 37.36 54.1837 37.36C54.9837 37.36 55.7337 37.17 56.4337 36.79C57.1537 36.39 57.6437 35.87 57.9037 35.23L61.3537 36.19C60.7737 37.39 59.8437 38.38 58.5637 39.16C57.3037 39.92 55.7937 40.3 54.0337 40.3ZM58.1137 30.82C58.0137 29.64 57.5737 28.7 56.7937 28C56.0337 27.28 55.1037 26.92 54.0037 26.92C53.4637 26.92 52.9537 27.02 52.4737 27.22C52.0137 27.4 51.6037 27.66 51.2437 28C50.8837 28.34 50.5837 28.75 50.3437 29.23C50.1237 29.71 49.9937 30.24 49.9537 30.82H58.1137ZM80.2127 40H76.1927V31.18C76.1927 29.92 75.9727 29 75.5327 28.42C75.0927 27.84 74.4827 27.55 73.7027 27.55C73.3027 27.55 72.8927 27.63 72.4727 27.79C72.0527 27.95 71.6527 28.18 71.2727 28.48C70.9127 28.76 70.5827 29.1 70.2827 29.5C69.9827 29.9 69.7627 30.34 69.6227 30.82V40H65.6027V24.28H69.2327V27.19C69.8127 26.19 70.6527 25.41 71.7527 24.85C72.8527 24.29 74.0927 24.01 75.4727 24.01C76.4527 24.01 77.2527 24.19 77.8727 24.55C78.4927 24.91 78.9727 25.38 79.3127 25.96C79.6527 26.54 79.8827 27.2 80.0027 27.94C80.1427 28.68 80.2127 29.43 80.2127 30.19V40ZM83.3181 45.88C82.5581 45.88 81.8381 45.76 81.1581 45.52C80.4781 45.3 79.8681 44.95 79.3281 44.47L81.0681 41.74C81.2881 41.96 81.5581 42.12 81.8781 42.22C82.1981 42.34 82.5181 42.4 82.8381 42.4C83.3581 42.4 83.8081 42.21 84.1881 41.83C84.5681 41.47 84.7581 41 84.7581 40.42V24.28H88.7781V40.12C88.7781 40.96 88.6381 41.73 88.3581 42.43C88.0781 43.15 87.6881 43.76 87.1881 44.26C86.7081 44.78 86.1281 45.18 85.4481 45.46C84.7881 45.74 84.0781 45.88 83.3181 45.88ZM84.7581 22.09V18.1H88.7781V22.09H84.7581ZM100.59 40.3C99.3104 40.3 98.1604 40.08 97.1404 39.64C96.1204 39.2 95.2504 38.61 94.5304 37.87C93.8304 37.11 93.2904 36.24 92.9104 35.26C92.5304 34.28 92.3404 33.25 92.3404 32.17C92.3404 31.07 92.5304 30.03 92.9104 29.05C93.2904 28.07 93.8304 27.21 94.5304 26.47C95.2504 25.71 96.1204 25.11 97.1404 24.67C98.1604 24.23 99.3104 24.01 100.59 24.01C101.87 24.01 103.01 24.23 104.01 24.67C105.03 25.11 105.89 25.71 106.59 26.47C107.31 27.21 107.86 28.07 108.24 29.05C108.62 30.03 108.81 31.07 108.81 32.17C108.81 33.25 108.62 34.28 108.24 35.26C107.86 36.24 107.32 37.11 106.62 37.87C105.92 38.61 105.06 39.2 104.04 39.64C103.02 40.08 101.87 40.3 100.59 40.3ZM96.4804 32.17C96.4804 32.87 96.5804 33.51 96.7804 34.09C97.0004 34.65 97.2904 35.14 97.6504 35.56C98.0304 35.98 98.4704 36.31 98.9704 36.55C99.4704 36.77 100.01 36.88 100.59 36.88C101.17 36.88 101.71 36.77 102.21 36.55C102.71 36.31 103.14 35.98 103.5 35.56C103.88 35.14 104.17 34.64 104.37 34.06C104.59 33.48 104.7 32.84 104.7 32.14C104.7 31.46 104.59 30.83 104.37 30.25C104.17 29.67 103.88 29.17 103.5 28.75C103.14 28.33 102.71 28.01 102.21 27.79C101.71 27.55 101.17 27.43 100.59 27.43C100.01 27.43 99.4704 27.55 98.9704 27.79C98.4704 28.03 98.0304 28.36 97.6504 28.78C97.2904 29.2 97.0004 29.7 96.7804 30.28C96.5804 30.86 96.4804 31.49 96.4804 32.17Z" fill="white"/>
</g>
<defs>
<filter id="filter0_d_101_0" x="34" y="0" width="67" height="67" filterUnits="userSpaceOnUse" color-interpolation-filters="sRGB">
<feFlood flood-opacity="0" result="BackgroundImageFix"/>
<feColorMatrix in="SourceAlpha" type="matrix" values="0 0 0 0 0 0 0 0 0 0 0 0 0 0 0 0 0 0 127 0" result="hardAlpha"/>
<feOffset dy="4"/>
<feGaussianBlur stdDeviation="2"/>
<feColorMatrix type="matrix" values="0 0 0 0 0 0 0 0 0 0 0 0 0 0 0 0 0 0 0.3 0"/>
<feBlend mode="normal" in2="BackgroundImageFix" result="effect1_dropShadow_101_0"/>
<feBlend mode="normal" in="SourceGraphic" in2="effect1_dropShadow_101_0" result="shape"/>
</filter>
<filter id="filter1_d_101_0" x="21.9" y="16.1001" width="90.9104" height="36.5898" filterUnits="userSpaceOnUse" color-interpolation-filters="sRGB">
<feFlood flood-opacity="0" result="BackgroundImageFix"/>
<feColorMatrix in="SourceAlpha" type="matrix" values="0 0 0 0 0 0 0 0 0 0 0 0 0 0 0 0 0 0 127 0" result="hardAlpha"/>
<feOffset dy="2"/>
<feGaussianBlur stdDeviation="2"/>
<feColorMatrix type="matrix" values="0 0 0 0 0 0 0 0 0 0 0 0 0 0 0 0 0 0 0.25 0"/>
<feBlend mode="normal" in2="BackgroundImageFix" result="effect1_dropShadow_101_0"/>
<feBlend mode="normal" in="SourceGraphic" in2="effect1_dropShadow_101_0" result="shape"/>
</filter>
<radialGradient id="paint0_radial_101_0" cx="0" cy="0" r="1" gradientUnits="userSpaceOnUse" gradientTransform="translate(29.6579 32) rotate(102.907) scale(29.8058 41.5109)">
<stop offset="0.248497" stop-color="#0500FF" stop-opacity="0.69"/>
<stop offset="1" stop-color="#6A0DAD"/>
</radialGradient>
<radialGradient id="paint1_radial_101_0" cx="0" cy="0" r="1" gradientUnits="userSpaceOnUse" gradientTransform="translate(118.658 32) rotate(126.777) scale(37.4053 52.0949)">
<stop offset="0.248497" stop-color="#6A0DAD" stop-opacity="0.72"/>
<stop offset="1" stop-color="#06C7F2"/>
</radialGradient>
<radialGradient id="paint2_radial_101_0" cx="0" cy="0" r="1" gradientUnits="userSpaceOnUse" gradientTransform="translate(76.0395 29.5) rotate(102.907) scale(38.2291 53.2422)">
<stop offset="0.248497" stop-color="#06C7F2" stop-opacity="0.63"/>
<stop offset="1" stop-color="#0018F9"/>
</radialGradient>
</defs>
</svg>
